<?xml version="1.0" encoding="UTF-8"?>
<svg xmlns="http://www.w3.org/2000/svg" viewBox="0 0 318.22 160.78">
  <g id="Text">
    <text transform="translate(116.61 73.16)" style="fill: #231f20; font-size: 68.72px;"><tspan style="font-family: Video-Regular, Video;"><tspan x="0" y="0">JAR</tspan></tspan><tspan style="font-family: VideoCond-Regular, &apos;Video Cond&apos;;"><tspan x="0" y="68.72" style="letter-spacing: -.05em;">F</tspan><tspan x="26.04" y="68.72" style="letter-spacing: 0em;">actory</tspan></tspan></text>
  </g>
  <g id="Jar">
    <path d="m60.14,3.24s11.88-3.52,30.02,4.85c19.6,9.04,22.9,20.64,22.9,20.64l-5.92,11.39s-8.71-11.06-24.87-18.32c-14.29-6.42-28.37-6.34-28.37-6.34l6.23-12.22Z" style="fill: none; stroke: #231f20; stroke-linejoin: round; stroke-width: 5px;"/>
    <path d="m61.31,16.19s-15.06,9.3-19,11.48-8.78,12.71-8.78,12.71L3.54,105.59s-2.35,4.29,0,9.54c2.21,4.93,5.25,11.09,21.18,18.77,21.1,10.17,34.19,9.1,38.54,8.7s6.59-1.86,9.32-7.8,31.6-69.8,31.6-69.8c0,0,2.12-8.78.59-15.28-.71-3.03-2.38-14.63-2.38-14.63" style="fill: none; stroke: #231f20; stroke-linejoin: round; stroke-width: 5px;"/>
    <circle cx="58.06" cy="77.16" r="21.12" style="fill: none; stroke: #231f20; stroke-linejoin: round; stroke-width: 5px;"/>
  </g>
</svg>